<svg xmlns="http://www.w3.org/2000/svg" viewBox="0 0 139.13 87.501999" fill="none" aria-hidden="true">
  <path fill="currentColor" d="m 63.093503,43.967661 c 1.09506,0.52999 4.15578,1.5358 5.01586,0.18048 0.83293,-1.31252 -0.44156,-4.49496 -0.50753,-6.00132 -0.1793,-4.09438 0.63808,-8.10036 2.10625,-11.90625 7.11531,2.10324 15.05381,-4.07169 17.00702,-10.58333 0.5308,-1.76959 1.32071,-4.85313 0.37138,-6.5858005 -0.99372,-1.81373 -4.06973,-1.30948 -5.73673,-1.13101 -5.51691,0.59065 -10.96157,3.0728605 -13.22447,8.5105605 -1.49726,3.59789 -0.99049,7.63255 -1.85678,11.37708 -2.46281,-7.788 -0.30606,-16.81727 -6.88958,-22.9728205 -3.04403,-2.84614 -7.26178,-4.36627996 -11.36667,-4.76350996 -3.17226,-0.30699 -5.33231,-0.0202 -4.98217,3.65924996 0.68196,7.1662805 3.84835,13.7752605 10.803,16.7016105 1.91599,0.80621 6.12972,0.21002 7.50122,1.44971 1.23088,1.11256 1.37875,3.8579 1.70346,5.3966 1.14459,5.42373 1.28838,11.27638 0.0557,16.66875 m -1.5875,-27.78125 c -2.28274,-1.85822 -3.74604,-4.60587 -6.08542,-6.4906605 -0.657,-0.52933 -2.70764,-1.82829 -2.93124,-0.10821 -0.13169,1.0130705 1.25132,2.0072605 1.87291,2.6301205 1.91091,1.91485 4.04876,3.91526 5.29167,6.35 -8.62299,0 -13.75298,-7.75542 -13.75834,-15.8750005 7.69497,0.15882 15.43925,5.20218 15.61042,13.4937505 m 23.01875,-5.55625 c -0.062,7.48507 -5.51304,12.96374 -12.96459,12.96458 1.56351,-2.36365 3.72047,-4.3138 5.81675,-6.1977 0.54104,-0.48621 1.81874,-1.56195 0.94952,-2.32571 -0.85757,-0.75354 -2.11479,0.24843 -2.79752,0.76495 -2.08236,1.57543 -3.62288,4.44014 -5.82083,5.6418 0.45485,-1.84629 0.68921,-3.63612 1.71143,-5.29167 2.80038,-4.5354 8.20358,-5.55625 13.10524,-5.55625 m 26.193747,22.48958 c -0.96072,2.94748 -2.36147,5.71357 -3.77235,8.46667 -0.41042,0.80089 -1.45778,2.14013 -0.76885,3.03883 1.72176,2.246 3.39161,-1.91342 4.33296,-2.6146 0.84473,-0.62921 2.12905,-0.42423 3.11865,-0.42423 8.55416,0 15.86948,1.45545 19.57917,10.31875 -9.94016,0 -19.27226,-3.82049 -29.10417,-0.61655 -2.74058,0.89308 -5.571267,1.77786 -8.200847,2.96513 -0.92952,0.41967 -2.22485,1.51604 -0.97525,2.47149 0.92213,0.70506 2.41863,-0.0881 3.35527,-0.4132 2.719907,-0.94425 5.405897,-2.01214 8.202077,-2.72036 7.06729,-1.79004 12.86571,0.34552 19.84375,0.95932 1.79238,0.15766 6.47201,-0.49136 7.80256,0.68881 1.49347,1.3247 1.28705,4.6471 1.72244,6.45494 -8.10361,1.92934 -16.037,-2.99202 -24.34166,-1.42582 -1.64984,0.31116 -6.2125,0.67646 -7.06863,2.32349 -1.44943,2.78838 3.82149,1.33666 4.68738,1.1202 9.07213,-2.26805 17.5877,1.15713 26.72291,1.15713 -0.001,1.9726 -0.0337,5.16202 -1.28434,6.80567 -1.15785,1.5217 -4.63222,1.70578 -6.38857,1.99071 -8.08559,1.31172 -14.1789,-2.44217 -21.96042,-3.1952 -2.62933,-0.25446 -5.36201,-0.005 -7.937497,0.53998 -5.29435,1.11935 -10.62823,2.66131 -15.87377,3.99365 -1.16548,0.29601 -2.23208,1.70812 -0.75579,2.50741 2.09558,1.13457 7.58409,-1.102 9.75039,-1.71753 6.44788,-1.83213 12.400307,-3.44682 19.049997,-1.47359 8.08709,2.39976 14.7222,2.84377 23.01875,1.13223 -4.56237,10.90063 -17.13464,8.20209 -26.72291,8.20209 H 29.491383 c 1.38655,-1.39039 2.64796,-2.82354 3.68681,-4.49792 0.5623,-0.90628 0.96629,-2.33699 1.92578,-2.90307 1.4658,-0.86479 4.57499,-0.32944 6.29366,-0.57101 4.37609,-0.61511 8.56752,-2.01559 12.96458,-2.53579 2.98138,-0.35273 6.36991,0.37313 9.26042,1.08181 0.96259,0.236 2.73581,0.89135 3.431,-0.18293 1.60228,-2.47602 -5.8154,-3.20678 -7.13517,-3.42081 -8.25263,-1.33827 -15.91243,2.71097 -24.07708,2.71097 2.27445,-7.16003 1.40282,-14.35052 -0.52917,-21.43125 6.11025,0 12.46318,-0.49229 18.52083,0.37788 5.66329,0.81352 10.8525,3.39219 16.66875,3.32527 3.04615,-0.0351 6.06966,-0.76356 8.99562,-1.55606 1.01067,-0.27374 2.90569,-1.22257 1.65488,-2.5164 -0.9234,-0.95514 -2.98524,0.0585 -4.03592,0.30725 -3.35444,0.79397 -6.87361,1.22826 -10.31875,0.77924 -6.74827,-0.87953 -12.59395,-3.6276 -19.57916,-3.6276 h -9.26042 c -1.13421,0 -2.89901,0.32505 -3.9124,-0.27193 -0.96196,-0.56668 -1.47096,-2.02045 -2.10585,-2.90307 -1.11302,-1.5473 -2.42765,-2.88952 -3.77133,-4.23333 h 25.4 c 1.68213,0 7.75477,0.97466 7.71865,-1.58382 -0.0209,-1.48303 -1.5601,-1.5762 -2.69157,-1.59017 -2.90945,-0.0359 -5.82156,-0.001 -8.73125,-0.001 h -24.07708 c -4.56026,0 -9.490132,-0.53201 -13.758332,1.4056 -12.64315028,5.73954 -14.2857903,23.60056 -9.6838303,35.1069 2.27248,5.68192 6.79054,11.17273 13.1234103,12.31252 2.86233,0.51515 6.091262,0.12289 8.995832,0.12289 h 17.72709 54.76874 19.843747 c 4.09504,0 8.42786,0.31878 12.17084,-1.67304 4.81646,-2.56309 7.56068,-7.51852 8.9556,-12.61446 2.83381,-10.35245 0.81797,-23.76097 -7.89727,-30.83253 -5.27408,-4.27941 -11.91894,-3.5633 -18.25625,-3.5633 0.71544,-1.72065 2.1713,-3.8808 1.97967,-5.81981 -0.24764,-2.50592 -5.13912,-4.1284 -7.27134,-3.94099 -4.03878,0.35498 -7.519887,6.24768 -11.112497,8.14146 -5.88501,3.10216 -14.45167,1.61934 -20.90208,1.61934 -0.99099,0 -2.49744,-0.27053 -3.37894,0.27193 -1.00672,0.61952 -0.8262,2.03846 0.23272,2.47884 1.80588,0.75102 4.90593,0.15965 6.85039,0.15965 6.08175,0 12.87731,0.82309 18.52083,-1.92069 2.36001,-1.14739 4.477097,-2.87159 6.349997,-4.69777 1.09237,-1.06512 2.36307,-2.76745 3.96875,-3.03557 1.28758,-0.21501 2.54962,0.76783 3.70417,1.18736 m -94.191669,8.54323 c 6.883382,-0.8967 12.405382,3.63863 15.118002,9.71302 4.74946,10.63549 3.26862,31.3539 -11.41383,33.26094 -6.211722,0.80681 -11.4298123,-3.71552 -14.0872323,-8.91927 -5.22468998,-10.231 -4.3421,-32.13645 10.3830603,-34.05469 m 6.879172,38.28802 c -11.016622,1.39227 -15.1182623,-11.85512 -14.0639523,-20.6375 0.48336,-4.02634 2.5230803,-8.6581 6.3910303,-10.49657 4.360032,-2.07235 8.460132,1.22516 10.500452,4.94032 3.17726,5.78537 3.65206,16.68285 -2.29856,21.01621 -2.3523,1.71299 -4.76265,0.0728 -6.233432,-1.97009 -2.66879,-3.70692 -3.49014,-8.81679 -2.5456,-13.22529 0.39107,-1.82526 1.89514,-5.10742 4.281112,-4.56488 3.24986,0.73895 3.84993,5.89833 3.47408,8.53363 -0.15685,1.09977 -0.48364,2.97014 -1.89026,3.12846 -1.45694,0.16398 -2.283242,-2.22354 -3.435702,-2.86387 -0.72271,3.14488 2.432422,6.96522 5.528482,4.38707 3.5109,-2.92363 2.67659,-10.5076 -0.0592,-13.63606 -2.38365,-2.72578 -6.628852,-2.39601 -8.697152,0.51875 -3.57434,5.03715 -2.12332,14.2465 1.13611,19.04899 3.04623,4.48835 8.728592,5.28543 12.172462,0.79273 4.87985,-6.36599 4.42473,-17.24612 0.21416,-23.81148 -3.82782,-5.96853 -12.068522,-7.83938 -17.094622,-2.11279 -5.9639603,6.79516 -5.5774903,18.73051 -1.1336603,26.18987 2.1930103,3.68117 9.8375923,9.70716 13.7542523,4.7625 m 29.36875,-19.20209 c -3.54768,0.48292 -7.10565,1.15266 -10.58333,2.00826 -1.17568,0.28924 -2.88894,1.65253 -1.02935,2.53395 1.55746,0.73822 4.45326,-0.41824 6.05643,-0.73883 4.19162,-0.83822 8.40511,-1.54738 12.7,-1.24637 7.298,0.51154 13.74709,4.47425 21.16666,4.47425 2.04345,0 4.73742,0.12082 6.57539,-0.94423 1.0105,-0.58553 1.01451,-2.11683 -0.24091,-2.40084 -2.74716,-0.62152 -6.24138,1.0512 -9.24489,0.58306 -8.73377,-1.36126 -16.25435,-5.51417 -25.4,-4.26925 z"/>
</svg>
